<?xml version="1.0" encoding="utf-8"?>
<!-- Generator: Adobe Illustrator 15.0.2, SVG Export Plug-In . SVG Version: 6.00 Build 0)  -->
<!DOCTYPE svg PUBLIC "-//W3C//DTD SVG 1.1//EN" "http://www.w3.org/Graphics/SVG/1.1/DTD/svg11.dtd">
<svg version="1.1" id="Layer_1" xmlns="http://www.w3.org/2000/svg" xmlns:xlink="http://www.w3.org/1999/xlink" x="0px" y="0px"
	 width="1024px" height="1024px" viewBox="0 0 1024 1024" enable-background="new 0 0 1024 1024" xml:space="preserve">
<path d="M819.2,0H204.8C92.2,0,0,92.2,0,204.8v614.4C0,931.8,92.2,1024,204.8,1024h614.4c112.6,0,204.8-92.2,204.8-204.8V204.8
	C1024,92.2,931.8,0,819.2,0z M226.6,287.2L197,326.8v309.8h-46c-12.6,0-23-10.399-23-23V214.4l29.6-39.6c5-6.8,16-12.2,24.4-12.2
	h60.8c8.4,0,22.2,0,30.6,0h60.8c8.399,0,19.399,5.4,24.399,12.2l29.601,39.6h346.6c12.601,0,23,10.4,23,23v89.4H457.4L427.8,287.2
	c-5-6.6-16-12.2-24.399-12.2H342.6c-8.399,0-22.199,0-30.6,0h-60.8C242.6,275,231.8,280.6,226.6,287.2z M896,838.4
	c0,12.6-10.4,23-23,23H288.8c-12.6,0-22.8-10.4-22.8-23V439.2l29.6-39.4c5-6.6,16-12.2,24.4-12.2h60.8c8.4,0,22.2,0,30.601,0h60.8
	c8.399,0,19.399,5.6,24.399,12.2l29.801,39.4H873c12.6,0,23,10.2,23,23V838.4z"/>
</svg>
